<?xml version="1.0" standalone="no"?>
<!DOCTYPE svg PUBLIC "-//W3C//DTD SVG 20010904//EN"
 "http://www.w3.org/TR/2001/REC-SVG-20010904/DTD/svg10.dtd">
<svg version="1.0" xmlns="http://www.w3.org/2000/svg"
 width="700.000000pt" height="700.000000pt" viewBox="0 0 700.000000 700.000000"
 preserveAspectRatio="xMidYMid meet">
<metadata>
Created by potrace 1.14, written by Peter Selinger 2001-2017
</metadata>
<g transform="translate(0.000000,700.000000) scale(0.100000,-0.100000)"
fill="#000000" stroke="none">
<path d="M3345 5811 c-94 -27 -184 -80 -255 -151 -228 -226 -228 -592 0 -820
228 -228 594 -228 820 0 228 229 228 591 0 820 -73 74 -169 129 -266 154 -81
21 -222 20 -299 -3z"/>
<path d="M3380 4064 c-258 -55 -460 -303 -460 -564 0 -263 203 -510 465 -565
88 -18 142 -18 230 0 262 55 465 302 465 565 0 205 -136 423 -320 514 -127 62
-250 78 -380 50z"/>
<path d="M3415 2330 c-128 -19 -246 -82 -340 -182 -83 -88 -131 -185 -152
-306 -14 -83 -14 -101 0 -184 21 -121 69 -218 152 -306 181 -192 450 -241 685
-126 105 52 214 161 262 264 45 95 62 165 62 260 0 160 -57 295 -173 411 -92
92 -187 143 -306 164 -87 16 -115 16 -190 5z"/>
</g>
</svg>
